<?xml version="1.0" standalone="no"?>
<!DOCTYPE svg PUBLIC "-//W3C//DTD SVG 1.1//EN" "http://www.w3.org/Graphics/SVG/1.1/DTD/svg11.dtd">
<svg xmlns="http://www.w3.org/2000/svg" xmlns:xlink="http://www.w3.org/1999/xlink" xmlns:serif="http://www.serif.com/" width="1002" height="221" viewBox="0 0 1002 221" version="1.1" xml:space="preserve" style="fill-rule:evenodd;clip-rule:evenodd;stroke-linejoin:round;stroke-miterlimit:2;"><g><g><path d="M106.316,118.904l-57.255,0l-0,-58.874c-0,-9.342 0.032,-18.685 -0.01,-28.026c-0.042,-9.257 0.189,-18.526 -0.151,-27.734l-48.4,-0l0,215.338l48.787,-0l0,-61.827l57.029,-0l0,-38.877Z" style="fill:#202020;fill-rule:nonzero;stroke:#202020;stroke-width:1px;"/><clipPath id="_clip1"><rect x="133.684" y="3.898" width="49.803" height="216.475"/></clipPath><g clip-path="url(#_clip1)"><path d="M183.194,220.373c0,-0 -0.047,-207.219 -0.393,-216.475l-49.117,-0l0,216.475l49.51,-0Z" style="fill:#202020;fill-rule:nonzero;stroke:#202020;stroke-width:1px;"/></g></g><path d="M450.274,4.358l48.283,0c0.075,12.011 0.187,23.665 0.259,35.416c0.073,11.831 0.017,23.664 0.017,35.5l-0,107.207c16.64,0.173 33.105,0.051 49.568,0.075c16.363,0.023 32.728,0.004 49.457,0.004l0,37.339l-147.584,0l0,-215.541Z" style="fill:#202020;fill-rule:nonzero;stroke:#202020;stroke-width:1px;"/><path d="M780.931,82.616c-7.307,-30.171 -24.026,-52.908 -52.264,-66.662c-17.135,-8.347 -35.477,-11.537 -54.355,-11.696c-10.982,-0.093 -23.279,-0.121 -35.757,-0.119l0,38.216c4.033,-0.002 9.869,-0.009 11.726,0.007c10.144,0.094 20.3,-0.051 30.432,0.364c13.165,0.542 25.003,4.894 35.012,13.654c8.478,7.42 13.894,16.876 16.692,27.57c5.264,20.113 5.404,40.331 -1.284,60.201c-6.741,20.028 -20.455,32.662 -41.413,36.937c-4.1,0.838 -8.338,1.305 -12.522,1.379c-10.766,0.199 -21.543,0.084 -32.314,0.077c-0.467,0 -3.725,-0.049 -6.329,-0.109l0,37.793c13.32,-0.002 26.507,0.014 38.237,0.073c9.874,0.049 19.607,-0.777 29.223,-2.948c16.883,-3.808 32.067,-11.007 44.883,-22.772c20.727,-19.023 30.35,-43.322 32.63,-70.688c1.148,-13.777 0.707,-27.631 -2.597,-41.277" style="fill:#202020;fill-rule:nonzero;stroke:#202020;stroke-width:1px;"/><path d="M320.757,0.5l-8.767,0c-33.927,73.086 -68.086,146.076 -102.15,219.459l48.259,-0c1.578,-3.561 48.227,-106.582 57.547,-126.755c0.054,0.005 0.105,0.002 0.161,-0c0.096,0.002 1.197,0.005 1.293,-0c9.318,20.173 55.967,123.194 57.547,126.755l48.26,-0c-34.065,-73.383 -68.223,-146.373 -102.15,-219.459" style="fill:#202020;fill-rule:nonzero;stroke:#202020;stroke-width:1px;"/><path d="M898.676,0.5l-8.767,0c-33.927,73.086 -68.086,146.076 -102.15,219.459l48.259,-0c1.58,-3.561 48.23,-106.582 57.55,-126.755c0.051,0.005 0.105,0.002 0.158,-0c0.098,0.002 1.197,0.005 1.293,-0c9.32,20.173 55.967,123.194 57.547,126.755l48.26,-0c-34.065,-73.383 -68.223,-146.373 -102.15,-219.459" style="fill:#202020;fill-rule:nonzero;stroke:#202020;stroke-width:1px;"/></g></svg>